<svg height="492pt" viewBox="0 -24 492.27257 492" width="492pt" xmlns="http://www.w3.org/2000/svg"><path d="m323.125 27.027344h99.878906v174.785156h-99.878906zm0 0" fill="#b9befc"/><path d="m423.003906 205.8125h-99.875c-2.207031 0-4-1.792969-4-4v-174.785156c0-2.210938 1.792969-4 4-4h99.875c2.207032 0 4 1.789062 4 4v174.785156c0 2.210938-1.792968 4-4 4zm-95.878906-8h91.878906v-166.785156h-91.878906zm0 0" fill="#3762cc"/><path d="m427.550781 45.753906h-108.972656c-4.382813 0-7.9375-3.554687-7.9375-7.9375v-25.742187c0-4.382813 3.554687-7.9375 7.9375-7.9375h108.972656c4.382813 0 7.9375 3.554687 7.9375 7.9375v25.742187c0 4.382813-3.550781 7.9375-7.9375 7.9375zm0 0" fill="#f9a7a7"/><path d="m427.550781 49.753906h-108.972656c-6.582031 0-11.9375-5.355468-11.9375-11.9375v-25.742187c0-6.582031 5.355469-11.9375 11.9375-11.9375h108.972656c6.582031 0 11.941407 5.355469 11.941407 11.9375v25.742187c0 6.582032-5.359376 11.9375-11.941407 11.9375zm-108.972656-41.617187c-2.171875 0-3.9375 1.765625-3.9375 3.9375v25.742187c0 2.167969 1.765625 3.9375 3.9375 3.9375h108.972656c2.171875 0 3.941407-1.769531 3.941407-3.9375v-25.742187c0-2.171875-1.769532-3.9375-3.941407-3.9375zm0 0" fill="#3762cc"/><path d="m246.136719 39.511719-176.867188 151.898437v224.355469c0 13.789063 11.179688 24.96875 24.96875 24.96875h303.796875c13.789063 0 24.96875-11.179687 24.96875-24.96875v-224.355469zm0 0" fill="#b9befc"/><path d="m398.035156 444.734375h-303.796875c-15.972656 0-28.96875-12.996094-28.96875-28.96875v-224.355469c0-1.164062.511719-2.273437 1.394531-3.035156l176.867188-151.898438c1.496094-1.285156 3.714844-1.285156 5.210938 0l176.867187 151.898438c.886719.761719 1.394531 1.871094 1.394531 3.035156v224.355469c0 15.972656-12.996094 28.96875-28.96875 28.96875zm-324.765625-251.484375v222.515625c0 11.5625 9.40625 20.96875 20.964844 20.96875h303.796875c11.5625 0 20.96875-9.40625 20.96875-20.96875v-222.515625l-172.863281-148.464844zm0 0" fill="#3762cc"/><path d="m460.460938 252.363281c-6.488282 3.667969-14.070313 2.640625-19.222657-1.78125l-186.96875-160.574219c-4.679687-4.019531-11.589843-4.019531-16.269531 0l-186.96875 160.574219c-3.019531 2.589844-6.867188 4.015625-10.84375 4.015625-4.445312 0-8.628906-1.730468-11.773438-4.875l-19.539062-19.539062c-3.265625-3.265625-5.039062-7.789063-4.863281-12.402344s2.285156-8.988281 5.789062-11.996094l225.488281-193.65625c3.015626-2.589844 6.871094-4.015625 10.84375-4.015625 3.976563 0 7.832032 1.425781 10.847657 4.019531l225.488281 193.652344c3.503906 3.011719 5.613281 7.386719 5.789062 12 .171876 4.613282-1.601562 9.136719-4.867187 12.402344l-19.523437 19.527344c-1.019532 1.015625-2.148438 1.9375-3.40625 2.648437zm0 0" fill="#f9a7a7"/><path d="m452.035156 258.621094c-4.808594 0-9.542968-1.695313-13.402344-5.003906l-186.964843-160.578126c-3.207031-2.75-7.859375-2.75-11.058594 0l-186.96875 160.574219c-3.742187 3.214844-8.519531 4.984375-13.453125 4.984375-5.511719 0-10.695312-2.144531-14.597656-6.042968l-19.539063-19.542969c-4.050781-4.046875-6.25-9.65625-6.035156-15.382813.214844-5.726562 2.835937-11.148437 7.175781-14.878906l225.492188-193.652344c3.742187-3.214844 8.519531-4.984375 13.453125-4.984375 4.933593 0 9.710937 1.769531 13.453125 4.984375l225.488281 193.65625c4.347656 3.734375 6.960937 9.160156 7.179687 14.878906.214844 5.726563-1.984374 11.332032-6.035156 15.378907l-19.527344 19.527343c-1.386718 1.390626-2.78125 2.46875-4.265624 3.308594-3.289063 1.855469-6.859376 2.773438-10.394532 2.773438zm-205.898437-175.65625c3.8125 0 7.628906 1.335937 10.738281 4.003906l186.96875 160.578125c4.105469 3.523437 9.855469 4.046875 14.648438 1.335937.84375-.476562 1.679687-1.132812 2.546874-2l19.523438-19.527343c2.480469-2.480469 3.828125-5.914063 3.699219-9.421875-.132813-3.503906-1.738281-6.828125-4.398438-9.117188l-225.484375-193.652344c-2.292968-1.96875-5.21875-3.054687-8.242187-3.054687-3.023438 0-5.949219 1.085937-8.242188 3.054687l-225.488281 193.652344c-2.660156 2.285156-4.261719 5.609375-4.394531 9.113282-.132813 3.507812 1.214843 6.941406 3.695312 9.421874l19.539063 19.539063c2.390625 2.386719 5.566406 3.703125 8.945312 3.703125 3.019532 0 5.945313-1.082031 8.238282-3.050781l186.96875-160.574219c3.109374-2.667969 6.925781-4.003906 10.738281-4.003906zm0 0" fill="#3762cc"/><path d="m135.589844 328.25 60.523437 67.203125c13.804688 15.332031 31.925781 22.945313 50.023438 22.859375 18.09375.085938 36.214843-7.527344 50.023437-22.859375l60.523438-67.203125c27.457031-30.488281 27.457031-79.921875 0-110.410156-27.457032-30.488282-71.976563-30.488282-99.429688 0l-4.910156 5.449218c-3.425781 3.808594-8.988281 3.808594-12.414062 0l-4.910157-5.449218c-27.457031-30.488282-71.976562-30.488282-99.429687 0-27.460938 30.488281-27.460938 79.921875 0 110.410156zm0 0" fill="#f9cfcf"/><path d="m135.589844 328.25 60.523437 67.203125c13.804688 15.332031 31.925781 22.945313 50.023438 22.859375 18.09375.085938 36.214843-7.527344 50.023437-22.859375l60.523438-67.203125c27.457031-30.488281 27.457031-79.921875 0-110.410156-27.457032-30.488282-71.976563-30.488282-99.429688 0l-4.910156 5.449218c-3.425781 3.808594-8.988281 3.808594-12.414062 0l-4.910157-5.449218c-27.457031-30.488282-71.976562-30.488282-99.429687 0-27.460938 30.488281-27.460938 79.921875 0 110.410156zm0 0" fill="#f9cfcf"/><g fill="#4671c6"><path d="m192.480469 313.4375c-9.152344 0-16.574219-7.421875-16.574219-16.574219v-9.472656c0-9.15625 7.421875-16.574219 16.574219-16.574219 9.152343 0 16.574219 7.417969 16.574219 16.574219v9.472656c0 9.152344-7.421876 16.574219-16.574219 16.574219zm0 0"/><path d="m298.273438 313.4375c9.152343 0 16.574218-7.421875 16.574218-16.574219v-9.472656c0-9.15625-7.421875-16.574219-16.574218-16.574219-9.15625 0-16.574219 7.417969-16.574219 16.574219v9.472656c0 9.152344 7.417969 16.574219 16.574219 16.574219zm0 0"/><path d="m224.203125 282.925781c-9.152344 0-16.574219-7.421875-16.574219-16.574219v-9.472656c0-9.15625 7.421875-16.574218 16.574219-16.574218 9.15625 0 16.574219 7.417968 16.574219 16.574218v9.472656c0 9.152344-7.417969 16.574219-16.574219 16.574219zm0 0"/><path d="m265.652344 282.925781c9.15625 0 16.574218-7.421875 16.574218-16.574219v-9.472656c0-9.15625-7.417968-16.574218-16.574218-16.574218-9.152344 0-16.570313 7.417968-16.570313 16.574218v9.472656c0 9.152344 7.417969 16.574219 16.570313 16.574219zm0 0"/><path d="m277.941406 315.566406c-1.46875-.367187-2.488281-1.609375-2.488281-3.03125 0-15.527344-13.46875-28.113281-30.078125-28.113281-16.613281 0-30.078125 12.589844-30.078125 28.113281 0 1.421875-1.019531 2.664063-2.488281 3.03125-12.679688 3.167969-22.019532 13.972656-22.019532 26.820313v.691406c0 15.335937 13.300782 27.769531 29.710938 27.769531h49.746094c16.40625 0 29.710937-12.433594 29.710937-27.769531v-.691406c.003907-12.847657-9.335937-23.652344-22.015625-26.820313zm0 0"/></g><path d="m246.453125 422.3125c-.222656 0-.449219 0-.671875 0-19.894531 0-38.589844-8.578125-52.640625-24.183594l-60.523437-67.203125c-28.746094-31.914062-28.746094-83.84375 0-115.761719 14.046874-15.601562 32.757812-24.191406 52.6875-24.191406 19.929687 0 38.640624 8.589844 52.691406 24.191406l4.90625 5.449219c1.777344 1.976563 4.691406 1.976563 6.46875 0l4.90625-5.449219c14.050781-15.601562 32.761718-24.191406 52.6875-24.191406 19.929687 0 38.640625 8.589844 52.691406 24.191406 28.742188 31.917969 28.742188 83.847657 0 115.761719l-60.523438 67.207031c-14.050781 15.601563-32.75 24.179688-52.679687 24.179688zm-.335937-8h.296874c17.671876 0 34.257813-7.640625 46.773438-21.535156l60.523438-67.207032c26.085937-28.964843 26.085937-76.089843 0-105.054687-12.511719-13.890625-29.113282-21.542969-46.746094-21.542969-17.628906 0-34.230469 7.652344-46.742188 21.542969l-4.90625 5.449219c-2.425781 2.695312-5.6875 4.179687-9.179687 4.179687-3.492188 0-6.753907-1.484375-9.179688-4.179687l-4.910156-5.449219c-12.507813-13.890625-29.109375-21.542969-46.742187-21.542969-17.628907 0-34.230469 7.652344-46.742188 21.542969-26.085938 28.964844-26.085938 76.089844 0 105.054687l60.523438 67.207032c12.515624 13.894531 29.101562 21.535156 46.734374 21.535156zm0 0" fill="#3762cc"/><path d="m246.453125 422.3125c-.222656 0-.449219 0-.671875 0-19.894531 0-38.589844-8.578125-52.640625-24.183594l-60.523437-67.203125c-28.746094-31.914062-28.746094-83.84375 0-115.761719 14.046874-15.601562 32.757812-24.191406 52.6875-24.191406 19.929687 0 38.640624 8.589844 52.691406 24.191406l4.90625 5.449219c1.777344 1.976563 4.691406 1.976563 6.46875 0l4.90625-5.449219c14.050781-15.601562 32.761718-24.191406 52.6875-24.191406 19.929687 0 38.640625 8.589844 52.691406 24.191406 28.742188 31.917969 28.742188 83.847657 0 115.761719l-60.523438 67.207031c-14.050781 15.601563-32.75 24.179688-52.679687 24.179688zm-.335937-8h.296874c17.671876 0 34.257813-7.640625 46.773438-21.535156l60.523438-67.207032c26.085937-28.964843 26.085937-76.089843 0-105.054687-12.511719-13.890625-29.113282-21.542969-46.746094-21.542969-17.628906 0-34.230469 7.652344-46.742188 21.542969l-4.90625 5.449219c-2.425781 2.695312-5.6875 4.179687-9.179687 4.179687-3.492188 0-6.753907-1.484375-9.179688-4.179687l-4.910156-5.449219c-12.507813-13.890625-29.109375-21.542969-46.742187-21.542969-17.628907 0-34.230469 7.652344-46.742188 21.542969-26.085938 28.964844-26.085938 76.089844 0 105.054687l60.523438 67.207032c12.515624 13.894531 29.101562 21.535156 46.734374 21.535156zm0 0" fill="#3762cc"/></svg>